<svg width="444" height="199" viewBox="0 0 444 199" fill="none" xmlns="http://www.w3.org/2000/svg">
<path d="M69.2289 6.16C19.2289 28.16 14.5486 31.16 4.22871 69C-6.09116 106.84 3.78183 118.16 19.7818 138.16C35.7818 158.16 69.7818 180.16 93.7818 172.16C117.782 164.16 163.782 150 179.782 164C195.782 178 233.782 194.16 233.782 194.16C233.782 194.16 262.675 205.84 288.229 189C313.782 172.16 329.782 158.16 355.782 158.16C381.782 158.16 423.782 138.16 437.782 114.16C451.782 90.16 437.782 50.16 411.782 28.16C385.782 6.15997 357.782 6.16 313.782 6.16C269.782 6.16 233.782 28.16 179.782 28.16C125.782 28.16 119.229 -15.84 69.2289 6.16Z" fill="#ECEFF7"/>
</svg>
